<svg width="54" height="54" viewBox="0 0 54 54" fill="none" xmlns="http://www.w3.org/2000/svg">
<path d="M38.5661 10.1385C34.0268 10.2634 30.5083 11.4952 27.0827 12.6866C23.4191 13.959 19.9614 15.1588 15.1706 15.2077C11.9694 15.2584 8.76319 14.7049 5.61262 13.6147L3.375 12.8419V41.6677L4.49887 42.0677C7.43344 43.1055 10.4338 43.7046 13.4207 43.8463C13.8949 43.8682 14.3589 43.8801 14.8146 43.8801C19.899 43.8801 23.7921 42.5301 27.567 41.2273C31.5461 39.8503 35.2991 38.5492 40.4207 38.7906C43.1354 38.93 45.8149 39.4667 48.3739 40.3836L50.625 41.1801V12.3424L49.5146 11.9374C46.6432 10.8916 43.6289 10.2907 40.5759 10.1554C39.9064 10.1256 39.236 10.12 38.5661 10.1385ZM38.6573 13.4899C39.231 13.473 39.8183 13.473 40.4274 13.4966C41.0586 13.5236 41.6897 13.581 42.3191 13.6552C42.5759 14.7141 43.2331 15.6321 44.1526 16.2165C45.0721 16.8009 46.1824 17.0061 47.25 16.7889V32.1486C46.6972 32.036 46.1274 32.0358 45.5745 32.1478C45.0216 32.2598 44.4969 32.4817 44.0314 32.8005C43.5659 33.1192 43.1693 33.5283 42.865 34.0033C42.5607 34.4783 42.355 35.0097 42.2601 35.5657C41.7011 35.5083 41.1406 35.4666 40.5793 35.4409C34.8165 35.1877 30.5674 36.6373 26.46 38.0616C22.4758 39.4419 18.7009 40.7464 13.5827 40.5034C12.9452 40.47 12.3092 40.4138 11.6758 40.3346C11.4169 39.2787 10.7595 38.3639 9.8414 37.7817C8.92326 37.1995 7.8155 36.995 6.75 37.2111V21.8514C7.30611 21.9646 7.87937 21.9641 8.43528 21.8499C8.99119 21.7358 9.51825 21.5103 9.98474 21.1871C10.4512 20.8639 10.8475 20.4497 11.1497 19.9693C11.452 19.489 11.6539 18.9525 11.7433 18.3921C12.8993 18.5119 14.0552 18.5811 15.2078 18.5625C20.5487 18.5085 24.4316 17.1568 28.1897 15.8507C31.4989 14.6981 34.6528 13.6147 38.6573 13.4899ZM27 18.5625C23.2774 18.5625 20.25 22.3476 20.25 27C20.25 31.6524 23.2774 35.4375 27 35.4375C30.7226 35.4375 33.75 31.6524 33.75 27C33.75 22.3476 30.7226 18.5625 27 18.5625ZM27 21.9375C28.8293 21.9375 30.375 24.2561 30.375 27C30.375 29.7439 28.8293 32.0625 27 32.0625C25.1707 32.0625 23.625 29.7439 23.625 27C23.625 24.2561 25.1707 21.9375 27 21.9375ZM39.6562 21.9375C38.9849 21.9375 38.3411 22.2042 37.8664 22.6789C37.3917 23.1536 37.125 23.7974 37.125 24.4687C37.125 25.1401 37.3917 25.7839 37.8664 26.2586C38.3411 26.7333 38.9849 27 39.6562 27C40.3276 27 40.9714 26.7333 41.4461 26.2586C41.9208 25.7839 42.1875 25.1401 42.1875 24.4687C42.1875 23.7974 41.9208 23.1536 41.4461 22.6789C40.9714 22.2042 40.3276 21.9375 39.6562 21.9375ZM14.3438 27C13.6724 27 13.0286 27.2667 12.5539 27.7414C12.0792 28.2161 11.8125 28.8599 11.8125 29.5312C11.8125 30.2026 12.0792 30.8464 12.5539 31.3211C13.0286 31.7958 13.6724 32.0625 14.3438 32.0625C15.0151 32.0625 15.6589 31.7958 16.1336 31.3211C16.6083 30.8464 16.875 30.2026 16.875 29.5312C16.875 28.8599 16.6083 28.2161 16.1336 27.7414C15.6589 27.2667 15.0151 27 14.3438 27Z" fill="#863A20"/>
</svg>
