<svg width="111" height="111" viewBox="0 0 111 111" fill="none" xmlns="http://www.w3.org/2000/svg">
<mask id="mask0_850_205" style="mask-type:alpha" maskUnits="userSpaceOnUse" x="0" y="0" width="111" height="111">
<path d="M5.84211 2.92105C5.84211 4.53431 4.53431 5.84211 2.92105 5.84211C1.3078 5.84211 0 4.53431 0 2.92105C0 1.3078 1.3078 0 2.92105 0C4.53431 0 5.84211 1.3078 5.84211 2.92105Z" fill="#D9D9D9"/>
<path d="M5.84211 14.6053C5.84211 16.2185 4.53431 17.5263 2.92105 17.5263C1.3078 17.5263 0 16.2185 0 14.6053C0 12.992 1.3078 11.6842 2.92105 11.6842C4.53431 11.6842 5.84211 12.992 5.84211 14.6053Z" fill="#D9D9D9"/>
<path d="M5.84211 26.2895C5.84211 27.9027 4.53431 29.2105 2.92105 29.2105C1.3078 29.2105 0 27.9027 0 26.2895C0 24.6762 1.3078 23.3684 2.92105 23.3684C4.53431 23.3684 5.84211 24.6762 5.84211 26.2895Z" fill="#D9D9D9"/>
<path d="M5.84211 37.9737C5.84211 39.5869 4.53431 40.8947 2.92105 40.8947C1.3078 40.8947 0 39.5869 0 37.9737C0 36.3604 1.3078 35.0526 2.92105 35.0526C4.53431 35.0526 5.84211 36.3604 5.84211 37.9737Z" fill="#D9D9D9"/>
<path d="M5.84211 49.6579C5.84211 51.2711 4.53431 52.5789 2.92105 52.5789C1.3078 52.5789 0 51.2711 0 49.6579C0 48.0446 1.3078 46.7368 2.92105 46.7368C4.53431 46.7368 5.84211 48.0446 5.84211 49.6579Z" fill="#D9D9D9"/>
<path d="M5.84211 61.3421C5.84211 62.9554 4.53431 64.2632 2.92105 64.2632C1.3078 64.2632 0 62.9554 0 61.3421C0 59.7289 1.3078 58.4211 2.92105 58.4211C4.53431 58.4211 5.84211 59.7289 5.84211 61.3421Z" fill="#D9D9D9"/>
<path d="M5.84211 73.0263C5.84211 74.6396 4.53431 75.9474 2.92105 75.9474C1.3078 75.9474 0 74.6396 0 73.0263C0 71.4131 1.3078 70.1053 2.92105 70.1053C4.53431 70.1053 5.84211 71.4131 5.84211 73.0263Z" fill="#D9D9D9"/>
<path d="M5.84211 84.7105C5.84211 86.3238 4.53431 87.6316 2.92105 87.6316C1.3078 87.6316 0 86.3238 0 84.7105C0 83.0973 1.3078 81.7895 2.92105 81.7895C4.53431 81.7895 5.84211 83.0973 5.84211 84.7105Z" fill="#D9D9D9"/>
<path d="M5.84211 96.3947C5.84211 98.008 4.53431 99.3158 2.92105 99.3158C1.3078 99.3158 0 98.008 0 96.3947C0 94.7815 1.3078 93.4737 2.92105 93.4737C4.53431 93.4737 5.84211 94.7815 5.84211 96.3947Z" fill="#D9D9D9"/>
<path d="M5.84211 108.079C5.84211 109.692 4.53431 111 2.92105 111C1.3078 111 0 109.692 0 108.079C0 106.466 1.3078 105.158 2.92105 105.158C4.53431 105.158 5.84211 106.466 5.84211 108.079Z" fill="#D9D9D9"/>
<path d="M17.5263 2.92105C17.5263 4.53431 16.2185 5.84211 14.6053 5.84211C12.992 5.84211 11.6842 4.53431 11.6842 2.92105C11.6842 1.3078 12.992 0 14.6053 0C16.2185 0 17.5263 1.3078 17.5263 2.92105Z" fill="#D9D9D9"/>
<path d="M17.5263 14.6053C17.5263 16.2185 16.2185 17.5263 14.6053 17.5263C12.992 17.5263 11.6842 16.2185 11.6842 14.6053C11.6842 12.992 12.992 11.6842 14.6053 11.6842C16.2185 11.6842 17.5263 12.992 17.5263 14.6053Z" fill="#D9D9D9"/>
<path d="M17.5263 26.2895C17.5263 27.9027 16.2185 29.2105 14.6053 29.2105C12.992 29.2105 11.6842 27.9027 11.6842 26.2895C11.6842 24.6762 12.992 23.3684 14.6053 23.3684C16.2185 23.3684 17.5263 24.6762 17.5263 26.2895Z" fill="#D9D9D9"/>
<path d="M17.5263 37.9737C17.5263 39.5869 16.2185 40.8947 14.6053 40.8947C12.992 40.8947 11.6842 39.5869 11.6842 37.9737C11.6842 36.3604 12.992 35.0526 14.6053 35.0526C16.2185 35.0526 17.5263 36.3604 17.5263 37.9737Z" fill="#D9D9D9"/>
<path d="M17.5263 49.6579C17.5263 51.2711 16.2185 52.5789 14.6053 52.5789C12.992 52.5789 11.6842 51.2711 11.6842 49.6579C11.6842 48.0446 12.992 46.7368 14.6053 46.7368C16.2185 46.7368 17.5263 48.0446 17.5263 49.6579Z" fill="#D9D9D9"/>
<path d="M17.5263 61.3421C17.5263 62.9554 16.2185 64.2632 14.6053 64.2632C12.992 64.2632 11.6842 62.9554 11.6842 61.3421C11.6842 59.7289 12.992 58.4211 14.6053 58.4211C16.2185 58.4211 17.5263 59.7289 17.5263 61.3421Z" fill="#D9D9D9"/>
<path d="M17.5263 73.0263C17.5263 74.6396 16.2185 75.9474 14.6053 75.9474C12.992 75.9474 11.6842 74.6396 11.6842 73.0263C11.6842 71.4131 12.992 70.1053 14.6053 70.1053C16.2185 70.1053 17.5263 71.4131 17.5263 73.0263Z" fill="#D9D9D9"/>
<path d="M17.5263 84.7105C17.5263 86.3238 16.2185 87.6316 14.6053 87.6316C12.992 87.6316 11.6842 86.3238 11.6842 84.7105C11.6842 83.0973 12.992 81.7895 14.6053 81.7895C16.2185 81.7895 17.5263 83.0973 17.5263 84.7105Z" fill="#D9D9D9"/>
<path d="M17.5263 96.3947C17.5263 98.008 16.2185 99.3158 14.6053 99.3158C12.992 99.3158 11.6842 98.008 11.6842 96.3947C11.6842 94.7815 12.992 93.4737 14.6053 93.4737C16.2185 93.4737 17.5263 94.7815 17.5263 96.3947Z" fill="#D9D9D9"/>
<path d="M17.5263 108.079C17.5263 109.692 16.2185 111 14.6053 111C12.992 111 11.6842 109.692 11.6842 108.079C11.6842 106.466 12.992 105.158 14.6053 105.158C16.2185 105.158 17.5263 106.466 17.5263 108.079Z" fill="#D9D9D9"/>
<path d="M29.2105 2.92105C29.2105 4.53431 27.9027 5.84211 26.2895 5.84211C24.6762 5.84211 23.3684 4.53431 23.3684 2.92105C23.3684 1.3078 24.6762 0 26.2895 0C27.9027 0 29.2105 1.3078 29.2105 2.92105Z" fill="#D9D9D9"/>
<path d="M29.2105 14.6053C29.2105 16.2185 27.9027 17.5263 26.2895 17.5263C24.6762 17.5263 23.3684 16.2185 23.3684 14.6053C23.3684 12.992 24.6762 11.6842 26.2895 11.6842C27.9027 11.6842 29.2105 12.992 29.2105 14.6053Z" fill="#D9D9D9"/>
<path d="M29.2105 26.2895C29.2105 27.9027 27.9027 29.2105 26.2895 29.2105C24.6762 29.2105 23.3684 27.9027 23.3684 26.2895C23.3684 24.6762 24.6762 23.3684 26.2895 23.3684C27.9027 23.3684 29.2105 24.6762 29.2105 26.2895Z" fill="#D9D9D9"/>
<path d="M29.2105 37.9737C29.2105 39.5869 27.9027 40.8947 26.2895 40.8947C24.6762 40.8947 23.3684 39.5869 23.3684 37.9737C23.3684 36.3604 24.6762 35.0526 26.2895 35.0526C27.9027 35.0526 29.2105 36.3604 29.2105 37.9737Z" fill="#D9D9D9"/>
<path d="M29.2105 49.6579C29.2105 51.2711 27.9027 52.5789 26.2895 52.5789C24.6762 52.5789 23.3684 51.2711 23.3684 49.6579C23.3684 48.0446 24.6762 46.7368 26.2895 46.7368C27.9027 46.7368 29.2105 48.0446 29.2105 49.6579Z" fill="#D9D9D9"/>
<path d="M29.2105 61.3421C29.2105 62.9554 27.9027 64.2632 26.2895 64.2632C24.6762 64.2632 23.3684 62.9554 23.3684 61.3421C23.3684 59.7289 24.6762 58.4211 26.2895 58.4211C27.9027 58.4211 29.2105 59.7289 29.2105 61.3421Z" fill="#D9D9D9"/>
<path d="M29.2105 73.0263C29.2105 74.6396 27.9027 75.9474 26.2895 75.9474C24.6762 75.9474 23.3684 74.6396 23.3684 73.0263C23.3684 71.4131 24.6762 70.1053 26.2895 70.1053C27.9027 70.1053 29.2105 71.4131 29.2105 73.0263Z" fill="#D9D9D9"/>
<path d="M29.2105 84.7105C29.2105 86.3238 27.9027 87.6316 26.2895 87.6316C24.6762 87.6316 23.3684 86.3238 23.3684 84.7105C23.3684 83.0973 24.6762 81.7895 26.2895 81.7895C27.9027 81.7895 29.2105 83.0973 29.2105 84.7105Z" fill="#D9D9D9"/>
<path d="M29.2105 96.3947C29.2105 98.008 27.9027 99.3158 26.2895 99.3158C24.6762 99.3158 23.3684 98.008 23.3684 96.3947C23.3684 94.7815 24.6762 93.4737 26.2895 93.4737C27.9027 93.4737 29.2105 94.7815 29.2105 96.3947Z" fill="#D9D9D9"/>
<path d="M29.2105 108.079C29.2105 109.692 27.9027 111 26.2895 111C24.6762 111 23.3684 109.692 23.3684 108.079C23.3684 106.466 24.6762 105.158 26.2895 105.158C27.9027 105.158 29.2105 106.466 29.2105 108.079Z" fill="#D9D9D9"/>
<path d="M40.8947 2.92105C40.8947 4.53431 39.5869 5.84211 37.9737 5.84211C36.3604 5.84211 35.0526 4.53431 35.0526 2.92105C35.0526 1.3078 36.3604 0 37.9737 0C39.5869 0 40.8947 1.3078 40.8947 2.92105Z" fill="#D9D9D9"/>
<path d="M40.8947 14.6053C40.8947 16.2185 39.5869 17.5263 37.9737 17.5263C36.3604 17.5263 35.0526 16.2185 35.0526 14.6053C35.0526 12.992 36.3604 11.6842 37.9737 11.6842C39.5869 11.6842 40.8947 12.992 40.8947 14.6053Z" fill="#D9D9D9"/>
<path d="M40.8947 26.2895C40.8947 27.9027 39.5869 29.2105 37.9737 29.2105C36.3604 29.2105 35.0526 27.9027 35.0526 26.2895C35.0526 24.6762 36.3604 23.3684 37.9737 23.3684C39.5869 23.3684 40.8947 24.6762 40.8947 26.2895Z" fill="#D9D9D9"/>
<path d="M40.8947 37.9737C40.8947 39.5869 39.5869 40.8947 37.9737 40.8947C36.3604 40.8947 35.0526 39.5869 35.0526 37.9737C35.0526 36.3604 36.3604 35.0526 37.9737 35.0526C39.5869 35.0526 40.8947 36.3604 40.8947 37.9737Z" fill="#D9D9D9"/>
<path d="M40.8947 49.6579C40.8947 51.2711 39.5869 52.5789 37.9737 52.5789C36.3604 52.5789 35.0526 51.2711 35.0526 49.6579C35.0526 48.0446 36.3604 46.7368 37.9737 46.7368C39.5869 46.7368 40.8947 48.0446 40.8947 49.6579Z" fill="#D9D9D9"/>
<path d="M40.8947 61.3421C40.8947 62.9554 39.5869 64.2632 37.9737 64.2632C36.3604 64.2632 35.0526 62.9554 35.0526 61.3421C35.0526 59.7289 36.3604 58.4211 37.9737 58.4211C39.5869 58.4211 40.8947 59.7289 40.8947 61.3421Z" fill="#D9D9D9"/>
<path d="M40.8947 73.0263C40.8947 74.6396 39.5869 75.9474 37.9737 75.9474C36.3604 75.9474 35.0526 74.6396 35.0526 73.0263C35.0526 71.4131 36.3604 70.1053 37.9737 70.1053C39.5869 70.1053 40.8947 71.4131 40.8947 73.0263Z" fill="#D9D9D9"/>
<path d="M40.8947 84.7105C40.8947 86.3238 39.5869 87.6316 37.9737 87.6316C36.3604 87.6316 35.0526 86.3238 35.0526 84.7105C35.0526 83.0973 36.3604 81.7895 37.9737 81.7895C39.5869 81.7895 40.8947 83.0973 40.8947 84.7105Z" fill="#D9D9D9"/>
<path d="M40.8947 96.3947C40.8947 98.008 39.5869 99.3158 37.9737 99.3158C36.3604 99.3158 35.0526 98.008 35.0526 96.3947C35.0526 94.7815 36.3604 93.4737 37.9737 93.4737C39.5869 93.4737 40.8947 94.7815 40.8947 96.3947Z" fill="#D9D9D9"/>
<path d="M40.8947 108.079C40.8947 109.692 39.5869 111 37.9737 111C36.3604 111 35.0526 109.692 35.0526 108.079C35.0526 106.466 36.3604 105.158 37.9737 105.158C39.5869 105.158 40.8947 106.466 40.8947 108.079Z" fill="#D9D9D9"/>
<path d="M52.5789 2.92105C52.5789 4.53431 51.2711 5.84211 49.6579 5.84211C48.0446 5.84211 46.7368 4.53431 46.7368 2.92105C46.7368 1.3078 48.0446 0 49.6579 0C51.2711 0 52.5789 1.3078 52.5789 2.92105Z" fill="#D9D9D9"/>
<path d="M52.5789 14.6053C52.5789 16.2185 51.2711 17.5263 49.6579 17.5263C48.0446 17.5263 46.7368 16.2185 46.7368 14.6053C46.7368 12.992 48.0446 11.6842 49.6579 11.6842C51.2711 11.6842 52.5789 12.992 52.5789 14.6053Z" fill="#D9D9D9"/>
<path d="M52.5789 26.2895C52.5789 27.9027 51.2711 29.2105 49.6579 29.2105C48.0446 29.2105 46.7368 27.9027 46.7368 26.2895C46.7368 24.6762 48.0446 23.3684 49.6579 23.3684C51.2711 23.3684 52.5789 24.6762 52.5789 26.2895Z" fill="#D9D9D9"/>
<path d="M52.5789 37.9737C52.5789 39.5869 51.2711 40.8947 49.6579 40.8947C48.0446 40.8947 46.7368 39.5869 46.7368 37.9737C46.7368 36.3604 48.0446 35.0526 49.6579 35.0526C51.2711 35.0526 52.5789 36.3604 52.5789 37.9737Z" fill="#D9D9D9"/>
<path d="M52.5789 49.6579C52.5789 51.2711 51.2711 52.5789 49.6579 52.5789C48.0446 52.5789 46.7368 51.2711 46.7368 49.6579C46.7368 48.0446 48.0446 46.7368 49.6579 46.7368C51.2711 46.7368 52.5789 48.0446 52.5789 49.6579Z" fill="#D9D9D9"/>
<path d="M52.5789 61.3421C52.5789 62.9554 51.2711 64.2632 49.6579 64.2632C48.0446 64.2632 46.7368 62.9554 46.7368 61.3421C46.7368 59.7289 48.0446 58.4211 49.6579 58.4211C51.2711 58.4211 52.5789 59.7289 52.5789 61.3421Z" fill="#D9D9D9"/>
<path d="M52.5789 73.0263C52.5789 74.6396 51.2711 75.9474 49.6579 75.9474C48.0446 75.9474 46.7368 74.6396 46.7368 73.0263C46.7368 71.4131 48.0446 70.1053 49.6579 70.1053C51.2711 70.1053 52.5789 71.4131 52.5789 73.0263Z" fill="#D9D9D9"/>
<path d="M52.5789 84.7105C52.5789 86.3238 51.2711 87.6316 49.6579 87.6316C48.0446 87.6316 46.7368 86.3238 46.7368 84.7105C46.7368 83.0973 48.0446 81.7895 49.6579 81.7895C51.2711 81.7895 52.5789 83.0973 52.5789 84.7105Z" fill="#D9D9D9"/>
<path d="M52.5789 96.3947C52.5789 98.008 51.2711 99.3158 49.6579 99.3158C48.0446 99.3158 46.7368 98.008 46.7368 96.3947C46.7368 94.7815 48.0446 93.4737 49.6579 93.4737C51.2711 93.4737 52.5789 94.7815 52.5789 96.3947Z" fill="#D9D9D9"/>
<path d="M52.5789 108.079C52.5789 109.692 51.2711 111 49.6579 111C48.0446 111 46.7368 109.692 46.7368 108.079C46.7368 106.466 48.0446 105.158 49.6579 105.158C51.2711 105.158 52.5789 106.466 52.5789 108.079Z" fill="#D9D9D9"/>
<path d="M64.2632 2.92105C64.2632 4.53431 62.9554 5.84211 61.3421 5.84211C59.7289 5.84211 58.4211 4.53431 58.4211 2.92105C58.4211 1.3078 59.7289 0 61.3421 0C62.9554 0 64.2632 1.3078 64.2632 2.92105Z" fill="#D9D9D9"/>
<path d="M64.2632 14.6053C64.2632 16.2185 62.9554 17.5263 61.3421 17.5263C59.7289 17.5263 58.4211 16.2185 58.4211 14.6053C58.4211 12.992 59.7289 11.6842 61.3421 11.6842C62.9554 11.6842 64.2632 12.992 64.2632 14.6053Z" fill="#D9D9D9"/>
<path d="M64.2632 26.2895C64.2632 27.9027 62.9554 29.2105 61.3421 29.2105C59.7289 29.2105 58.4211 27.9027 58.4211 26.2895C58.4211 24.6762 59.7289 23.3684 61.3421 23.3684C62.9554 23.3684 64.2632 24.6762 64.2632 26.2895Z" fill="#D9D9D9"/>
<path d="M64.2632 37.9737C64.2632 39.5869 62.9554 40.8947 61.3421 40.8947C59.7289 40.8947 58.4211 39.5869 58.4211 37.9737C58.4211 36.3604 59.7289 35.0526 61.3421 35.0526C62.9554 35.0526 64.2632 36.3604 64.2632 37.9737Z" fill="#D9D9D9"/>
<path d="M64.2632 49.6579C64.2632 51.2711 62.9554 52.5789 61.3421 52.5789C59.7289 52.5789 58.4211 51.2711 58.4211 49.6579C58.4211 48.0446 59.7289 46.7368 61.3421 46.7368C62.9554 46.7368 64.2632 48.0446 64.2632 49.6579Z" fill="#D9D9D9"/>
<path d="M64.2632 61.3421C64.2632 62.9554 62.9554 64.2632 61.3421 64.2632C59.7289 64.2632 58.4211 62.9554 58.4211 61.3421C58.4211 59.7289 59.7289 58.4211 61.3421 58.4211C62.9554 58.4211 64.2632 59.7289 64.2632 61.3421Z" fill="#D9D9D9"/>
<path d="M64.2632 73.0263C64.2632 74.6396 62.9554 75.9474 61.3421 75.9474C59.7289 75.9474 58.4211 74.6396 58.4211 73.0263C58.4211 71.4131 59.7289 70.1053 61.3421 70.1053C62.9554 70.1053 64.2632 71.4131 64.2632 73.0263Z" fill="#D9D9D9"/>
<path d="M64.2632 84.7105C64.2632 86.3238 62.9554 87.6316 61.3421 87.6316C59.7289 87.6316 58.4211 86.3238 58.4211 84.7105C58.4211 83.0973 59.7289 81.7895 61.3421 81.7895C62.9554 81.7895 64.2632 83.0973 64.2632 84.7105Z" fill="#D9D9D9"/>
<path d="M64.2632 96.3947C64.2632 98.008 62.9554 99.3158 61.3421 99.3158C59.7289 99.3158 58.4211 98.008 58.4211 96.3947C58.4211 94.7815 59.7289 93.4737 61.3421 93.4737C62.9554 93.4737 64.2632 94.7815 64.2632 96.3947Z" fill="#D9D9D9"/>
<path d="M64.2632 108.079C64.2632 109.692 62.9554 111 61.3421 111C59.7289 111 58.4211 109.692 58.4211 108.079C58.4211 106.466 59.7289 105.158 61.3421 105.158C62.9554 105.158 64.2632 106.466 64.2632 108.079Z" fill="#D9D9D9"/>
<path d="M75.9474 2.92105C75.9474 4.53431 74.6396 5.84211 73.0263 5.84211C71.4131 5.84211 70.1053 4.53431 70.1053 2.92105C70.1053 1.3078 71.4131 0 73.0263 0C74.6396 0 75.9474 1.3078 75.9474 2.92105Z" fill="#D9D9D9"/>
<path d="M75.9474 14.6053C75.9474 16.2185 74.6396 17.5263 73.0263 17.5263C71.4131 17.5263 70.1053 16.2185 70.1053 14.6053C70.1053 12.992 71.4131 11.6842 73.0263 11.6842C74.6396 11.6842 75.9474 12.992 75.9474 14.6053Z" fill="#D9D9D9"/>
<path d="M75.9474 26.2895C75.9474 27.9027 74.6396 29.2105 73.0263 29.2105C71.4131 29.2105 70.1053 27.9027 70.1053 26.2895C70.1053 24.6762 71.4131 23.3684 73.0263 23.3684C74.6396 23.3684 75.9474 24.6762 75.9474 26.2895Z" fill="#D9D9D9"/>
<path d="M75.9474 37.9737C75.9474 39.5869 74.6396 40.8947 73.0263 40.8947C71.4131 40.8947 70.1053 39.5869 70.1053 37.9737C70.1053 36.3604 71.4131 35.0526 73.0263 35.0526C74.6396 35.0526 75.9474 36.3604 75.9474 37.9737Z" fill="#D9D9D9"/>
<path d="M75.9474 49.6579C75.9474 51.2711 74.6396 52.5789 73.0263 52.5789C71.4131 52.5789 70.1053 51.2711 70.1053 49.6579C70.1053 48.0446 71.4131 46.7368 73.0263 46.7368C74.6396 46.7368 75.9474 48.0446 75.9474 49.6579Z" fill="#D9D9D9"/>
<path d="M75.9474 61.3421C75.9474 62.9554 74.6396 64.2632 73.0263 64.2632C71.4131 64.2632 70.1053 62.9554 70.1053 61.3421C70.1053 59.7289 71.4131 58.4211 73.0263 58.4211C74.6396 58.4211 75.9474 59.7289 75.9474 61.3421Z" fill="#D9D9D9"/>
<path d="M75.9474 73.0263C75.9474 74.6396 74.6396 75.9474 73.0263 75.9474C71.4131 75.9474 70.1053 74.6396 70.1053 73.0263C70.1053 71.4131 71.4131 70.1053 73.0263 70.1053C74.6396 70.1053 75.9474 71.4131 75.9474 73.0263Z" fill="#D9D9D9"/>
<path d="M75.9474 84.7105C75.9474 86.3238 74.6396 87.6316 73.0263 87.6316C71.4131 87.6316 70.1053 86.3238 70.1053 84.7105C70.1053 83.0973 71.4131 81.7895 73.0263 81.7895C74.6396 81.7895 75.9474 83.0973 75.9474 84.7105Z" fill="#D9D9D9"/>
<path d="M75.9474 96.3947C75.9474 98.008 74.6396 99.3158 73.0263 99.3158C71.4131 99.3158 70.1053 98.008 70.1053 96.3947C70.1053 94.7815 71.4131 93.4737 73.0263 93.4737C74.6396 93.4737 75.9474 94.7815 75.9474 96.3947Z" fill="#D9D9D9"/>
<path d="M75.9474 108.079C75.9474 109.692 74.6396 111 73.0263 111C71.4131 111 70.1053 109.692 70.1053 108.079C70.1053 106.466 71.4131 105.158 73.0263 105.158C74.6396 105.158 75.9474 106.466 75.9474 108.079Z" fill="#D9D9D9"/>
<path d="M87.6316 2.92105C87.6316 4.53431 86.3238 5.84211 84.7105 5.84211C83.0973 5.84211 81.7895 4.53431 81.7895 2.92105C81.7895 1.3078 83.0973 0 84.7105 0C86.3238 0 87.6316 1.3078 87.6316 2.92105Z" fill="#D9D9D9"/>
<path d="M87.6316 14.6053C87.6316 16.2185 86.3238 17.5263 84.7105 17.5263C83.0973 17.5263 81.7895 16.2185 81.7895 14.6053C81.7895 12.992 83.0973 11.6842 84.7105 11.6842C86.3238 11.6842 87.6316 12.992 87.6316 14.6053Z" fill="#D9D9D9"/>
<path d="M87.6316 26.2895C87.6316 27.9027 86.3238 29.2105 84.7105 29.2105C83.0973 29.2105 81.7895 27.9027 81.7895 26.2895C81.7895 24.6762 83.0973 23.3684 84.7105 23.3684C86.3238 23.3684 87.6316 24.6762 87.6316 26.2895Z" fill="#D9D9D9"/>
<path d="M87.6316 37.9737C87.6316 39.5869 86.3238 40.8947 84.7105 40.8947C83.0973 40.8947 81.7895 39.5869 81.7895 37.9737C81.7895 36.3604 83.0973 35.0526 84.7105 35.0526C86.3238 35.0526 87.6316 36.3604 87.6316 37.9737Z" fill="#D9D9D9"/>
<path d="M87.6316 49.6579C87.6316 51.2711 86.3238 52.5789 84.7105 52.5789C83.0973 52.5789 81.7895 51.2711 81.7895 49.6579C81.7895 48.0446 83.0973 46.7368 84.7105 46.7368C86.3238 46.7368 87.6316 48.0446 87.6316 49.6579Z" fill="#D9D9D9"/>
<path d="M87.6316 61.3421C87.6316 62.9554 86.3238 64.2632 84.7105 64.2632C83.0973 64.2632 81.7895 62.9554 81.7895 61.3421C81.7895 59.7289 83.0973 58.4211 84.7105 58.4211C86.3238 58.4211 87.6316 59.7289 87.6316 61.3421Z" fill="#D9D9D9"/>
<path d="M87.6316 73.0263C87.6316 74.6396 86.3238 75.9474 84.7105 75.9474C83.0973 75.9474 81.7895 74.6396 81.7895 73.0263C81.7895 71.4131 83.0973 70.1053 84.7105 70.1053C86.3238 70.1053 87.6316 71.4131 87.6316 73.0263Z" fill="#D9D9D9"/>
<path d="M87.6316 84.7105C87.6316 86.3238 86.3238 87.6316 84.7105 87.6316C83.0973 87.6316 81.7895 86.3238 81.7895 84.7105C81.7895 83.0973 83.0973 81.7895 84.7105 81.7895C86.3238 81.7895 87.6316 83.0973 87.6316 84.7105Z" fill="#D9D9D9"/>
<path d="M87.6316 96.3947C87.6316 98.008 86.3238 99.3158 84.7105 99.3158C83.0973 99.3158 81.7895 98.008 81.7895 96.3947C81.7895 94.7815 83.0973 93.4737 84.7105 93.4737C86.3238 93.4737 87.6316 94.7815 87.6316 96.3947Z" fill="#D9D9D9"/>
<path d="M87.6316 108.079C87.6316 109.692 86.3238 111 84.7105 111C83.0973 111 81.7895 109.692 81.7895 108.079C81.7895 106.466 83.0973 105.158 84.7105 105.158C86.3238 105.158 87.6316 106.466 87.6316 108.079Z" fill="#D9D9D9"/>
<path d="M99.3158 2.92105C99.3158 4.53431 98.008 5.84211 96.3947 5.84211C94.7815 5.84211 93.4737 4.53431 93.4737 2.92105C93.4737 1.3078 94.7815 0 96.3947 0C98.008 0 99.3158 1.3078 99.3158 2.92105Z" fill="#D9D9D9"/>
<path d="M99.3158 14.6053C99.3158 16.2185 98.008 17.5263 96.3947 17.5263C94.7815 17.5263 93.4737 16.2185 93.4737 14.6053C93.4737 12.992 94.7815 11.6842 96.3947 11.6842C98.008 11.6842 99.3158 12.992 99.3158 14.6053Z" fill="#D9D9D9"/>
<path d="M99.3158 26.2895C99.3158 27.9027 98.008 29.2105 96.3947 29.2105C94.7815 29.2105 93.4737 27.9027 93.4737 26.2895C93.4737 24.6762 94.7815 23.3684 96.3947 23.3684C98.008 23.3684 99.3158 24.6762 99.3158 26.2895Z" fill="#D9D9D9"/>
<path d="M99.3158 37.9737C99.3158 39.5869 98.008 40.8947 96.3947 40.8947C94.7815 40.8947 93.4737 39.5869 93.4737 37.9737C93.4737 36.3604 94.7815 35.0526 96.3947 35.0526C98.008 35.0526 99.3158 36.3604 99.3158 37.9737Z" fill="#D9D9D9"/>
<path d="M99.3158 49.6579C99.3158 51.2711 98.008 52.5789 96.3947 52.5789C94.7815 52.5789 93.4737 51.2711 93.4737 49.6579C93.4737 48.0446 94.7815 46.7368 96.3947 46.7368C98.008 46.7368 99.3158 48.0446 99.3158 49.6579Z" fill="#D9D9D9"/>
<path d="M99.3158 61.3421C99.3158 62.9554 98.008 64.2632 96.3947 64.2632C94.7815 64.2632 93.4737 62.9554 93.4737 61.3421C93.4737 59.7289 94.7815 58.4211 96.3947 58.4211C98.008 58.4211 99.3158 59.7289 99.3158 61.3421Z" fill="#D9D9D9"/>
<path d="M99.3158 73.0263C99.3158 74.6396 98.008 75.9474 96.3947 75.9474C94.7815 75.9474 93.4737 74.6396 93.4737 73.0263C93.4737 71.4131 94.7815 70.1053 96.3947 70.1053C98.008 70.1053 99.3158 71.4131 99.3158 73.0263Z" fill="#D9D9D9"/>
<path d="M99.3158 84.7105C99.3158 86.3238 98.008 87.6316 96.3947 87.6316C94.7815 87.6316 93.4737 86.3238 93.4737 84.7105C93.4737 83.0973 94.7815 81.7895 96.3947 81.7895C98.008 81.7895 99.3158 83.0973 99.3158 84.7105Z" fill="#D9D9D9"/>
<path d="M99.3158 96.3947C99.3158 98.008 98.008 99.3158 96.3947 99.3158C94.7815 99.3158 93.4737 98.008 93.4737 96.3947C93.4737 94.7815 94.7815 93.4737 96.3947 93.4737C98.008 93.4737 99.3158 94.7815 99.3158 96.3947Z" fill="#D9D9D9"/>
<path d="M99.3158 108.079C99.3158 109.692 98.008 111 96.3947 111C94.7815 111 93.4737 109.692 93.4737 108.079C93.4737 106.466 94.7815 105.158 96.3947 105.158C98.008 105.158 99.3158 106.466 99.3158 108.079Z" fill="#D9D9D9"/>
<path d="M111 2.92105C111 4.53431 109.692 5.84211 108.079 5.84211C106.466 5.84211 105.158 4.53431 105.158 2.92105C105.158 1.3078 106.466 0 108.079 0C109.692 0 111 1.3078 111 2.92105Z" fill="#D9D9D9"/>
<path d="M111 14.6053C111 16.2185 109.692 17.5263 108.079 17.5263C106.466 17.5263 105.158 16.2185 105.158 14.6053C105.158 12.992 106.466 11.6842 108.079 11.6842C109.692 11.6842 111 12.992 111 14.6053Z" fill="#D9D9D9"/>
<path d="M111 26.2895C111 27.9027 109.692 29.2105 108.079 29.2105C106.466 29.2105 105.158 27.9027 105.158 26.2895C105.158 24.6762 106.466 23.3684 108.079 23.3684C109.692 23.3684 111 24.6762 111 26.2895Z" fill="#D9D9D9"/>
<path d="M111 37.9737C111 39.5869 109.692 40.8947 108.079 40.8947C106.466 40.8947 105.158 39.5869 105.158 37.9737C105.158 36.3604 106.466 35.0526 108.079 35.0526C109.692 35.0526 111 36.3604 111 37.9737Z" fill="#D9D9D9"/>
<path d="M111 49.6579C111 51.2711 109.692 52.5789 108.079 52.5789C106.466 52.5789 105.158 51.2711 105.158 49.6579C105.158 48.0446 106.466 46.7368 108.079 46.7368C109.692 46.7368 111 48.0446 111 49.6579Z" fill="#D9D9D9"/>
<path d="M111 61.3421C111 62.9554 109.692 64.2632 108.079 64.2632C106.466 64.2632 105.158 62.9554 105.158 61.3421C105.158 59.7289 106.466 58.4211 108.079 58.4211C109.692 58.4211 111 59.7289 111 61.3421Z" fill="#D9D9D9"/>
<path d="M111 73.0263C111 74.6396 109.692 75.9474 108.079 75.9474C106.466 75.9474 105.158 74.6396 105.158 73.0263C105.158 71.4131 106.466 70.1053 108.079 70.1053C109.692 70.1053 111 71.4131 111 73.0263Z" fill="#D9D9D9"/>
<path d="M111 84.7105C111 86.3238 109.692 87.6316 108.079 87.6316C106.466 87.6316 105.158 86.3238 105.158 84.7105C105.158 83.0973 106.466 81.7895 108.079 81.7895C109.692 81.7895 111 83.0973 111 84.7105Z" fill="#D9D9D9"/>
<path d="M111 96.3947C111 98.008 109.692 99.3158 108.079 99.3158C106.466 99.3158 105.158 98.008 105.158 96.3947C105.158 94.7815 106.466 93.4737 108.079 93.4737C109.692 93.4737 111 94.7815 111 96.3947Z" fill="#D9D9D9"/>
<path d="M111 108.079C111 109.692 109.692 111 108.079 111C106.466 111 105.158 109.692 105.158 108.079C105.158 106.466 106.466 105.158 108.079 105.158C109.692 105.158 111 106.466 111 108.079Z" fill="#D9D9D9"/>
</mask>
<g mask="url(#mask0_850_205)">
<rect width="111" height="111" fill="#863A20"/>
</g>
</svg>
