<svg width="50" height="50" viewBox="0 0 50 50" fill="none" xmlns="http://www.w3.org/2000/svg">
<path d="M24.9998 33.3333L27.9165 30.4166L24.5832 27.0833H33.3332V22.9166H24.5832L27.9165 19.5833L24.9998 16.6666L16.6665 25L24.9998 33.3333ZM24.9998 45.8333C22.1179 45.8333 19.4096 45.2861 16.8748 44.1916C14.3401 43.0986 12.1353 41.6145 10.2603 39.7395C8.38525 37.8645 6.90123 35.6597 5.80817 33.125C4.71373 30.5902 4.1665 27.8819 4.1665 25C4.1665 22.118 4.71373 19.4097 5.80817 16.875C6.90123 14.3402 8.38525 12.1354 10.2603 10.2604C12.1353 8.38538 14.3401 6.90065 16.8748 5.80621C19.4096 4.71315 22.1179 4.16663 24.9998 4.16663C27.8818 4.16663 30.5901 4.71315 33.1248 5.80621C35.6596 6.90065 37.8644 8.38538 39.7394 10.2604C41.6144 12.1354 43.0984 14.3402 44.1915 16.875C45.2859 19.4097 45.8332 22.118 45.8332 25C45.8332 27.8819 45.2859 30.5902 44.1915 33.125C43.0984 35.6597 41.6144 37.8645 39.7394 39.7395C37.8644 41.6145 35.6596 43.0986 33.1248 44.1916C30.5901 45.2861 27.8818 45.8333 24.9998 45.8333Z" fill="#863A20"/>
</svg>
