<svg width="50" height="50" viewBox="0 0 50 50" fill="none" xmlns="http://www.w3.org/2000/svg">
<path d="M26.4582 31.875L31.8748 26.4583C32.2915 26.0416 32.4998 25.5555 32.4998 25C32.4998 24.4444 32.2915 23.9583 31.8748 23.5416L26.4061 18.0729C26.0241 17.6909 25.5471 17.5083 24.9748 17.525C24.4012 17.543 23.9235 17.743 23.5415 18.125C23.1596 18.5069 22.9686 18.993 22.9686 19.5833C22.9686 20.1736 23.1596 20.6597 23.5415 21.0416L25.4165 22.9166H18.6978C18.1075 22.9166 17.6214 23.1159 17.2394 23.5145C16.8575 23.9145 16.6665 24.4097 16.6665 25C16.6665 25.5902 16.8665 26.0847 17.2665 26.4833C17.6651 26.8833 18.1596 27.0833 18.7498 27.0833H25.4165L23.4894 29.0104C23.1075 29.3923 22.9248 29.8701 22.9415 30.4437C22.9596 31.0159 23.1596 31.493 23.5415 31.875C23.9235 32.2569 24.4096 32.4479 24.9998 32.4479C25.5901 32.4479 26.0762 32.2569 26.4582 31.875ZM24.9998 45.8333C22.1179 45.8333 19.4096 45.2861 16.8748 44.1916C14.3401 43.0986 12.1353 41.6145 10.2603 39.7395C8.38525 37.8645 6.90123 35.6597 5.80817 33.125C4.71373 30.5902 4.1665 27.8819 4.1665 25C4.1665 22.118 4.71373 19.4097 5.80817 16.875C6.90123 14.3402 8.38525 12.1354 10.2603 10.2604C12.1353 8.38538 14.3401 6.90065 16.8748 5.80621C19.4096 4.71315 22.1179 4.16663 24.9998 4.16663C27.8818 4.16663 30.5901 4.71315 33.1248 5.80621C35.6596 6.90065 37.8644 8.38538 39.7394 10.2604C41.6144 12.1354 43.0984 14.3402 44.1915 16.875C45.2859 19.4097 45.8332 22.118 45.8332 25C45.8332 27.8819 45.2859 30.5902 44.1915 33.125C43.0984 35.6597 41.6144 37.8645 39.7394 39.7395C37.8644 41.6145 35.6596 43.0986 33.1248 44.1916C30.5901 45.2861 27.8818 45.8333 24.9998 45.8333ZM24.9998 41.6666C29.6179 41.6666 33.5505 40.0437 36.7978 36.7979C40.0436 33.5507 41.6665 29.618 41.6665 25C41.6665 20.3819 40.0436 16.4493 36.7978 13.202C33.5505 9.95621 29.6179 8.33329 24.9998 8.33329C20.3818 8.33329 16.4498 9.95621 13.204 13.202C9.95678 16.4493 8.33317 20.3819 8.33317 25C8.33317 29.618 9.95678 33.5507 13.204 36.7979C16.4498 40.0437 20.3818 41.6666 24.9998 41.6666Z" fill="#863A20"/>
</svg>
