<svg width="54" height="54" viewBox="0 0 54 54" fill="none" xmlns="http://www.w3.org/2000/svg">
<path d="M34.7444 26.181C34.59 26.181 34.4361 26.1168 34.3254 25.9911L23.6366 13.8139C23.5392 13.7028 23.4903 13.5577 23.4996 13.4103C23.5093 13.2628 23.5768 13.1258 23.6883 13.028L31.75 5.95256C31.9807 5.75095 32.3318 5.77236 32.5359 6.00428L43.2247 18.1815C43.3221 18.2926 43.3709 18.4377 43.3616 18.5851C43.352 18.7326 43.2845 18.8696 43.173 18.9674L35.1113 26.0428C35.0058 26.1349 34.8749 26.181 34.7444 26.181ZM24.8414 13.497L34.7953 24.8374L42.0199 18.4968L32.0661 7.15637L24.8414 13.497Z" fill="#863A20"/>
<path d="M36.2369 31.1851C36.2248 31.1851 36.2131 31.1847 36.2005 31.1839C36.0531 31.1742 35.9157 31.1067 35.8183 30.9952L32.6882 27.4284C32.4854 27.1973 32.508 26.8454 32.7399 26.6425L44.0762 16.6932C44.3074 16.492 44.6577 16.5142 44.8621 16.7445L47.9926 20.3109C48.09 20.4224 48.1389 20.567 48.1296 20.7149C48.1199 20.8624 48.0524 20.9993 47.9409 21.0971L36.6036 31.0469C36.5021 31.1362 36.3719 31.1851 36.2369 31.1851ZM33.8927 27.1124L36.2878 29.8421L46.7873 20.6268L44.3914 17.8975L33.8927 27.1124Z" fill="#863A20"/>
<path d="M22.4182 15.4405C22.2639 15.4405 22.1099 15.3762 21.9992 15.2506L18.8687 11.6838C18.7713 11.5727 18.7224 11.4276 18.7317 11.2801C18.7414 11.1327 18.8089 10.9957 18.9204 10.8979L30.2567 0.948555C30.367 0.850778 30.5032 0.801483 30.6603 0.811185C30.8078 0.820882 30.9452 0.888356 31.0426 0.999868L34.1727 4.56667C34.3755 4.79778 34.3529 5.14969 34.121 5.35252L22.7857 15.3023C22.6802 15.3948 22.5487 15.4405 22.4182 15.4405ZM20.0736 11.3678L22.4695 14.0975L32.968 4.88259L30.5729 2.15288L20.0736 11.3678Z" fill="#863A20"/>
<path d="M21.7169 26.8357C21.5626 26.8357 21.4087 26.7715 21.298 26.6467C21.0951 26.4151 21.1178 26.0632 21.3493 25.86L29.0324 19.1162C29.2635 18.915 29.615 18.936 29.8191 19.1675C30.0219 19.3991 29.9993 19.751 29.7678 19.9542L22.0846 26.698C21.9784 26.7901 21.8474 26.8357 21.7169 26.8357Z" fill="#863A20"/>
<path d="M7.23002 44.1216C7.2179 44.1216 7.20619 44.1212 7.19366 44.1204C7.04619 44.1107 6.90922 44.0432 6.81144 43.9317L2.27899 38.7672C2.07616 38.5361 2.09878 38.1842 2.3307 37.9814L16.5011 25.5445C17.3023 24.8419 18.3298 24.4936 19.394 24.5619C20.4583 24.631 21.4316 25.1106 22.1354 25.9122C22.8389 26.7134 23.188 27.7409 23.118 28.8052C23.049 29.869 22.5694 30.8427 21.7677 31.5466L7.59733 43.9834C7.49551 44.0727 7.36497 44.1216 7.23002 44.1216ZM3.48376 38.4518L7.28133 42.779L21.0328 30.7083C21.6106 30.2012 21.9564 29.4994 22.0065 28.7318C22.0567 27.9649 21.8054 27.224 21.298 26.6467C20.7909 26.0689 20.0885 25.7225 19.3214 25.6724C18.5509 25.6284 17.8131 25.8741 17.2349 26.3815L3.48376 38.4518Z" fill="#863A20"/>
<path d="M51.3155 53.1638H28.6377C28.3298 53.1638 28.0809 52.9145 28.0809 52.607V46.2136C28.0809 45.9057 28.3302 45.6568 28.6377 45.6568H51.3155C51.6233 45.6568 51.8722 45.9061 51.8722 46.2136V52.607C51.8722 52.9145 51.6233 53.1638 51.3155 53.1638ZM29.1941 52.0498H50.7579V46.7702H29.1941V52.0498Z" fill="#863A20"/>
<path d="M48.8651 46.7704H31.0859C30.778 46.7704 30.5291 46.5211 30.5291 46.2136V39.5102C30.5291 39.2023 30.7784 38.9534 31.0859 38.9534H48.8651C49.173 38.9534 49.4219 39.2027 49.4219 39.5102V46.2136C49.4219 46.5211 49.173 46.7704 48.8651 46.7704ZM31.6434 45.6564H48.3086V40.0669L31.6434 40.0665V45.6564Z" fill="#863A20"/>
<path d="M21.298 26.6467C21.4087 26.7715 21.5626 26.8357 21.7169 26.8357C21.8474 26.8357 21.9784 26.7901 22.0846 26.698L29.7678 19.9542C29.9993 19.751 30.0219 19.3991 29.8191 19.1675C29.615 18.936 29.2635 18.915 29.0324 19.1162L21.3493 25.86C21.1178 26.0632 21.0951 26.4151 21.298 26.6467ZM21.298 26.6467C21.8054 27.224 22.0567 27.9649 22.0065 28.7318C21.9564 29.4994 21.6106 30.2012 21.0328 30.7083L7.28133 42.779L3.48376 38.4518L17.2349 26.3815C17.8131 25.8741 18.5509 25.6284 19.3214 25.6724C20.0885 25.7225 20.7909 26.0689 21.298 26.6467ZM34.7444 26.181C34.59 26.181 34.4361 26.1168 34.3254 25.9911L23.6366 13.8139C23.5392 13.7028 23.4903 13.5577 23.4996 13.4103C23.5093 13.2628 23.5768 13.1258 23.6883 13.028L31.75 5.95256C31.9807 5.75095 32.3318 5.77236 32.5359 6.00428L43.2247 18.1815C43.3221 18.2926 43.3709 18.4377 43.3616 18.5851C43.352 18.7326 43.2845 18.8696 43.173 18.9674L35.1113 26.0428C35.0058 26.1349 34.8749 26.181 34.7444 26.181ZM24.8414 13.497L34.7953 24.8374L42.0199 18.4968L32.0661 7.15637L24.8414 13.497ZM36.2369 31.1851C36.2248 31.1851 36.2131 31.1847 36.2005 31.1839C36.0531 31.1742 35.9157 31.1067 35.8183 30.9952L32.6882 27.4284C32.4854 27.1973 32.508 26.8454 32.7399 26.6425L44.0762 16.6932C44.3074 16.492 44.6577 16.5142 44.8621 16.7445L47.9926 20.3109C48.09 20.4224 48.1389 20.567 48.1296 20.7149C48.1199 20.8624 48.0524 20.9993 47.9409 21.0971L36.6036 31.0469C36.5021 31.1362 36.3719 31.1851 36.2369 31.1851ZM33.8927 27.1124L36.2878 29.8421L46.7873 20.6268L44.3914 17.8975L33.8927 27.1124ZM22.4182 15.4405C22.2639 15.4405 22.1099 15.3762 21.9992 15.2506L18.8687 11.6838C18.7713 11.5727 18.7224 11.4276 18.7317 11.2801C18.7414 11.1327 18.8089 10.9957 18.9204 10.8979L30.2567 0.948555C30.367 0.850778 30.5032 0.801483 30.6603 0.811185C30.8078 0.820882 30.9452 0.888356 31.0426 0.999868L34.1727 4.56667C34.3755 4.79778 34.3529 5.14969 34.121 5.35252L22.7857 15.3023C22.6802 15.3948 22.5487 15.4405 22.4182 15.4405ZM20.0736 11.3678L22.4695 14.0975L32.968 4.88259L30.5729 2.15288L20.0736 11.3678ZM7.23002 44.1216C7.2179 44.1216 7.20619 44.1212 7.19366 44.1204C7.04619 44.1107 6.90922 44.0432 6.81144 43.9317L2.27899 38.7672C2.07616 38.5361 2.09878 38.1842 2.3307 37.9814L16.5011 25.5445C17.3023 24.8419 18.3298 24.4936 19.394 24.5619C20.4583 24.631 21.4316 25.1106 22.1354 25.9122C22.8389 26.7134 23.188 27.7409 23.118 28.8052C23.049 29.869 22.5694 30.8427 21.7677 31.5466L7.59733 43.9834C7.49551 44.0727 7.36497 44.1216 7.23002 44.1216ZM51.3155 53.1638H28.6377C28.3298 53.1638 28.0809 52.9145 28.0809 52.607V46.2136C28.0809 45.9057 28.3302 45.6568 28.6377 45.6568H51.3155C51.6233 45.6568 51.8722 45.9061 51.8722 46.2136V52.607C51.8722 52.9145 51.6233 53.1638 51.3155 53.1638ZM29.1941 52.0498H50.7579V46.7702H29.1941V52.0498ZM48.8651 46.7704H31.0859C30.778 46.7704 30.5291 46.5211 30.5291 46.2136V39.5102C30.5291 39.2023 30.7784 38.9534 31.0859 38.9534H48.8651C49.173 38.9534 49.4219 39.2027 49.4219 39.5102V46.2136C49.4219 46.5211 49.173 46.7704 48.8651 46.7704ZM31.6434 45.6564H48.3086V40.0669L31.6434 40.0665V45.6564Z" stroke="#863A20"/>
</svg>
