<svg width="54" height="54" viewBox="0 0 54 54" fill="none" xmlns="http://www.w3.org/2000/svg">
<path d="M11.9186 37.0866C11.4557 37.0866 11.0797 37.4626 11.0797 37.9255V49.6706C11.0797 50.1335 11.4557 50.5095 11.9186 50.5095H17.7912V51.3484C17.7912 51.8113 18.1672 52.1874 18.6301 52.1874H35.4087C35.8716 52.1874 36.2476 51.8113 36.2476 51.3484V50.5095H42.1201C42.583 50.5095 42.9591 50.1335 42.9591 49.6706V37.9255C42.9591 37.4626 42.583 37.0866 42.1201 37.0866H36.2476V26.1805C36.2476 25.7176 35.8716 25.3416 35.4087 25.3416H33.7308V22.8248C33.7308 21.8993 32.9784 21.1469 32.053 21.1469H27.8583V18.6301H26.1805V21.1469H21.9858C21.0604 21.1469 20.3079 21.8993 20.3079 22.8248V25.3416H18.6301C18.1672 25.3416 17.7912 25.7176 17.7912 26.1805V37.0866H11.9186ZM41.2812 38.7645V48.8316H36.2476V38.7645H41.2812ZM28.6972 50.5095H25.3415V47.9927H28.6972V50.5095ZM21.9858 22.8248H32.053V25.3416H21.9858V22.8248ZM19.469 27.0194H34.5698V50.5095H30.3751V47.1538C30.3751 46.6909 29.9991 46.3148 29.5362 46.3148H24.5026C24.0397 46.3148 23.6637 46.6909 23.6637 47.1538V50.5095H19.469V27.0194ZM12.7576 48.8316V38.7645H17.7912V48.8316H12.7576Z" fill="#863A20" stroke="#863A20" stroke-width="0.1"/>
<path d="M21.9858 33.7308H32.053V35.4087H21.9858V33.7308Z" fill="#863A20" stroke="#863A20" stroke-width="0.1"/>
<path d="M21.9858 29.5361H32.053V31.214H21.9858V29.5361Z" fill="#863A20" stroke="#863A20" stroke-width="0.1"/>
<path d="M21.9858 37.9254H32.053V39.6033H21.9858V37.9254Z" fill="#863A20" stroke="#863A20" stroke-width="0.1"/>
<path d="M21.9858 42.1201H32.053V43.798H21.9858V42.1201Z" fill="#863A20" stroke="#863A20" stroke-width="0.1"/>
<path d="M37.9254 40.4423H39.6033V42.1201H37.9254V40.4423Z" fill="#863A20" stroke="#863A20" stroke-width="0.1"/>
<path d="M37.9254 43.798H39.6033V45.4758H37.9254V43.798Z" fill="#863A20" stroke="#863A20" stroke-width="0.1"/>
<path d="M14.4354 40.4423H16.1133V42.1201H14.4354V40.4423Z" fill="#863A20" stroke="#863A20" stroke-width="0.1"/>
<path d="M14.4354 43.798H16.1133V45.4758H14.4354V43.798Z" fill="#863A20" stroke="#863A20" stroke-width="0.1"/>
<path d="M27.0194 16.9522C31.1822 16.9522 34.5697 13.5646 34.5697 9.40182C34.5697 5.23899 31.1822 1.85144 27.0194 1.85144C22.8565 1.85144 19.469 5.23899 19.469 9.40182C19.469 13.5646 22.8565 16.9522 27.0194 16.9522ZM23.6846 14.2297C23.791 12.9395 24.8633 11.9186 26.1804 11.9186H27.8583C29.1755 11.9186 30.2478 12.9395 30.3541 14.2297C29.4062 14.8867 28.2575 15.2743 27.0194 15.2743C25.7812 15.2743 24.6325 14.8867 23.6846 14.2297ZM27.0194 10.2407C26.0939 10.2407 25.3415 9.48833 25.3415 8.56288C25.3415 7.63744 26.0939 6.88502 27.0194 6.88502C27.9448 6.88502 28.6972 7.63744 28.6972 8.56288C28.6972 9.48833 27.9448 10.2407 27.0194 10.2407ZM27.0194 3.5293C30.2574 3.5293 32.8919 6.16374 32.8919 9.40182C32.8919 10.7014 32.4623 11.9003 31.7443 12.874C31.3466 11.8891 30.5859 11.0962 29.6287 10.6468C30.0882 10.0723 30.3751 9.35397 30.3751 8.56298C30.3751 6.71244 28.8699 5.20726 27.0194 5.20726C25.1689 5.20726 23.6637 6.71244 23.6637 8.56298C23.6637 9.35397 23.9506 10.0723 24.4105 10.6468C23.4532 11.0966 22.6921 11.8891 22.2948 12.874C21.5765 11.9003 21.1469 10.7014 21.1469 9.40182C21.1469 6.16374 23.7813 3.5293 27.0194 3.5293H27.0194Z" fill="#863A20" stroke="#863A20" stroke-width="0.1"/>
<path d="M44.6369 8.56287C40.4741 8.56287 37.0865 11.9504 37.0865 16.1132C37.0865 20.2761 40.4741 23.6636 44.6369 23.6636C48.7997 23.6636 52.1873 20.2761 52.1873 16.1132C52.1873 11.9504 48.7997 8.56287 44.6369 8.56287ZM41.3022 20.9416C41.4086 19.6514 42.4808 18.6305 43.798 18.6305H45.4759C46.793 18.6305 47.8653 19.6514 47.9716 20.9416C47.0237 21.5986 45.8751 21.9862 44.6369 21.9862C43.3988 21.9862 42.25 21.5986 41.3022 20.9416ZM44.6369 16.9527C43.7115 16.9527 42.9591 16.2002 42.9591 15.2748C42.9591 14.3493 43.7115 13.5969 44.6369 13.5969C45.5624 13.5969 46.3148 14.3493 46.3148 15.2748C46.3148 16.2002 45.5624 16.9527 44.6369 16.9527ZM49.3619 19.5859C48.9641 18.601 48.2035 17.8081 47.2462 17.3587C47.7058 16.7842 47.9927 16.0659 47.9927 15.2749C47.9927 13.4243 46.4875 11.9192 44.6369 11.9192C42.7864 11.9192 41.2812 13.4243 41.2812 15.2749C41.2812 16.0659 41.5681 16.7842 42.028 17.3587C41.0707 17.8085 40.3097 18.601 39.9124 19.5859C39.194 18.6122 38.7644 17.4133 38.7644 16.1137C38.7644 12.8756 41.3989 10.2412 44.637 10.2412C47.875 10.2412 50.5095 12.8756 50.5095 16.1137C50.5095 17.4133 50.0799 18.6122 49.3619 19.5859H49.3619Z" fill="#863A20" stroke="#863A20" stroke-width="0.1"/>
<path d="M9.40182 23.6636C13.5646 23.6636 16.9522 20.2761 16.9522 16.1132C16.9522 11.9504 13.5646 8.56287 9.40182 8.56287C5.23899 8.56287 1.85144 11.9504 1.85144 16.1132C1.85144 20.2761 5.23899 23.6636 9.40182 23.6636ZM6.06709 20.9412C6.17346 19.6509 7.24572 18.63 8.56288 18.63H10.2407C11.5579 18.63 12.6302 19.6509 12.7365 20.9412C11.7886 21.5981 10.64 21.9858 9.40182 21.9858C8.16365 21.9858 7.01494 21.5981 6.06709 20.9412ZM9.40182 16.9522C8.47637 16.9522 7.72395 16.1998 7.72395 15.2743C7.72395 14.3489 8.47637 13.5964 9.40182 13.5964C10.3273 13.5964 11.0797 14.3489 11.0797 15.2743C11.0797 16.1998 10.3273 16.9522 9.40182 16.9522ZM9.40182 10.2407C12.6399 10.2407 15.2743 12.8752 15.2743 16.1132C15.2743 17.4129 14.8447 18.6117 14.1268 19.5855C13.729 18.6005 12.9684 17.8076 12.0111 17.3582C12.4707 16.7837 12.7576 16.0654 12.7576 15.2744C12.7576 13.4239 11.2524 11.9187 9.40183 11.9187C7.5513 11.9187 6.04611 13.4239 6.04611 15.2744C6.04611 16.0654 6.333 16.7837 6.79291 17.3582C5.83563 17.808 5.07459 18.6005 4.67727 19.5855C3.95894 18.6117 3.52933 17.4129 3.52933 16.1132C3.52933 12.8752 6.16376 10.2407 9.40184 10.2407H9.40182Z" fill="#863A20" stroke="#863A20" stroke-width="0.1"/>
<path d="M4.36823 49.635V52.1877H6.04609V49.635C7.17266 49.5117 8.56288 48.9444 8.56288 46.3152C8.56288 43.9729 7.41015 39.6038 5.20716 39.6038C3.00418 39.6038 1.85144 43.9729 1.85144 46.3152C1.85144 48.9444 3.24167 49.5114 4.36823 49.635ZM5.20567 41.2816C5.73299 41.3505 6.88506 43.9167 6.88506 46.3152C6.88506 47.9286 6.40118 47.9931 5.2072 47.9931C4.01322 47.9931 3.52934 47.9286 3.52934 46.3152C3.52934 43.9167 4.68141 41.3506 5.20567 41.2816Z" fill="#863A20" stroke="#863A20" stroke-width="0.1"/>
<path d="M48.8316 39.6033C46.6286 39.6033 45.4758 43.9724 45.4758 46.3147C45.4758 48.9439 46.8661 49.5109 47.9926 49.6345V52.1872H49.6705V49.6345C50.797 49.5113 52.1873 48.9439 52.1873 46.3147C52.1873 43.9724 51.0345 39.6033 48.8316 39.6033ZM48.8316 47.9926C47.6376 47.9926 47.1537 47.9282 47.1537 46.3147C47.1537 43.9162 48.3058 41.3501 48.83 41.2811C49.3573 41.35 50.5094 43.9162 50.5094 46.3147C50.5094 47.9281 50.0255 47.9926 48.8316 47.9926Z" fill="#863A20" stroke="#863A20" stroke-width="0.1"/>
</svg>
