<svg width="54" height="54" viewBox="0 0 54 54" fill="none" xmlns="http://www.w3.org/2000/svg">
<path d="M8.14501 38.88C8.3658 39.435 8.79801 39.8795 9.34655 40.1158C9.8951 40.3521 10.515 40.3608 11.07 40.14C11.625 39.9192 12.0695 39.487 12.3058 38.9385C12.5421 38.3899 12.5508 37.77 12.33 37.215L9.81001 30.87L24.75 27.5625V38.25C24.75 38.8467 24.9871 39.419 25.409 39.841C25.831 40.2629 26.4033 40.5 27 40.5C27.5967 40.5 28.169 40.2629 28.591 39.841C29.013 39.419 29.25 38.8467 29.25 38.25V27.5625L44.19 30.87L41.67 37.215C41.5604 37.4898 41.5061 37.7834 41.5101 38.0792C41.5141 38.375 41.5764 38.6671 41.6935 38.9388C41.8105 39.2105 41.9799 39.4564 42.1921 39.6625C42.4043 39.8686 42.655 40.0309 42.93 40.14C43.195 40.2447 43.4775 40.2982 43.7625 40.2975C44.2131 40.2979 44.6535 40.1631 45.0266 39.9103C45.3997 39.6576 45.6883 39.2986 45.855 38.88L49.3425 30.0825C49.4622 29.7782 49.5142 29.4515 49.4947 29.1251C49.4753 28.7987 49.385 28.4804 49.23 28.1925C49.0797 27.9056 48.8691 27.6546 48.6129 27.4565C48.3566 27.2585 48.0605 27.1181 47.745 27.045L40.5 25.4475V15.75C40.5 15.1533 40.263 14.581 39.841 14.159C39.419 13.7371 38.8467 13.5 38.25 13.5H33.75V6.75C33.75 6.15326 33.513 5.58097 33.091 5.15901C32.669 4.73705 32.0967 4.5 31.5 4.5H22.5C21.9033 4.5 21.331 4.73705 20.909 5.15901C20.4871 5.58097 20.25 6.15326 20.25 6.75V13.5H15.75C15.1533 13.5 14.581 13.7371 14.159 14.159C13.7371 14.581 13.5 15.1533 13.5 15.75V25.4475L6.25501 27C5.93948 27.0731 5.64345 27.2135 5.38716 27.4115C5.13087 27.6096 4.92036 27.8606 4.77001 28.1475C4.61505 28.4354 4.52471 28.7537 4.50528 29.0801C4.48585 29.4065 4.5378 29.7332 4.65751 30.0375L8.14501 38.88ZM24.75 9H29.25V13.5H24.75V9ZM18 18H36V24.435L27.495 22.5H26.505L18 24.435V18ZM46.5975 43.38C45.8081 43.6219 45.0521 43.9621 44.3475 44.3925C43.6307 44.8117 42.8153 45.0326 41.985 45.0326C41.1547 45.0326 40.3393 44.8117 39.6225 44.3925C38.0639 43.5132 36.3046 43.0512 34.515 43.0512C32.7254 43.0512 30.9662 43.5132 29.4075 44.3925C28.6809 44.8068 27.8589 45.0247 27.0225 45.0247C26.1861 45.0247 25.3641 44.8068 24.6375 44.3925C23.0775 43.5174 21.3187 43.0578 19.53 43.0578C17.7413 43.0578 15.9826 43.5174 14.4225 44.3925C13.7057 44.8117 12.8903 45.0326 12.06 45.0326C11.2297 45.0326 10.4143 44.8117 9.69751 44.3925C8.99289 43.9621 8.23696 43.6219 7.44751 43.38C7.14813 43.2736 6.8296 43.2317 6.51289 43.2573C6.19618 43.2828 5.88847 43.3751 5.61001 43.5282C5.33156 43.6812 5.08868 43.8915 4.89736 44.1452C4.70604 44.3989 4.57062 44.6902 4.50001 45C4.33204 45.5699 4.39627 46.183 4.67869 46.7057C4.96111 47.2284 5.43879 47.6182 6.00751 47.79C6.46058 47.9128 6.89282 48.1023 7.29001 48.3525C8.6551 49.1535 10.2073 49.5804 11.79 49.59C13.4339 49.5903 15.0485 49.1556 16.47 48.33C17.352 47.8435 18.3428 47.5883 19.35 47.5883C20.3572 47.5883 21.3481 47.8435 22.23 48.33C23.6414 49.1371 25.2391 49.5616 26.865 49.5616C28.4909 49.5616 30.0886 49.1371 31.5 48.33C32.382 47.8435 33.3728 47.5883 34.38 47.5883C35.3872 47.5883 36.3781 47.8435 37.26 48.33C38.6546 49.1623 40.2484 49.6018 41.8725 49.6018C43.4966 49.6018 45.0904 49.1623 46.485 48.33C46.8822 48.0798 47.3144 47.8903 47.7675 47.7675C48.0669 47.7069 48.3509 47.586 48.6021 47.4121C48.8533 47.2382 49.0664 47.015 49.2285 46.7561C49.3906 46.4971 49.4983 46.2079 49.5449 45.906C49.5916 45.6041 49.5763 45.2958 49.5 45C49.4285 44.6955 49.2943 44.4093 49.106 44.1595C48.9176 43.9098 48.6793 43.7021 48.4062 43.5497C48.133 43.3972 47.8311 43.3034 47.5197 43.2742C47.2083 43.245 46.8942 43.281 46.5975 43.38Z" fill="#863A20"/>
</svg>
